<svg width="1870" height="1973" viewBox="0 0 1870 1973" fill="none" xmlns="http://www.w3.org/2000/svg">
<path d="M65.1009 688.065L97.708 710.967C98.4055 711.457 98.7159 712.335 98.4811 713.154L95.4301 723.802M65.1009 688.065L61.7265 699.841M65.1009 688.065C71.6928 687.656 81.4457 687.046 91.5833 686.402M111.55 749.226L58.9317 712.026C58.5846 711.781 58.4306 711.343 58.5476 710.934L61.7265 699.841M111.55 749.226C115.075 750.236 123.253 749.77 127.766 739.829C130.217 731.275 133.647 719.305 135.806 711.771M111.55 749.226L114.994 737.209M95.4301 723.802L61.7265 699.841M95.4301 723.802C93.8476 727.509 98.3277 732.011 102.932 728.649M118.299 725.674L107.857 717.999C107.295 717.587 106.495 717.86 106.303 718.529C105.857 720.086 105.298 722.035 104.547 724.659C104.422 725.094 103.737 727.954 102.932 728.649M118.299 725.674C121.837 724.824 130.291 720.853 135.806 711.771M118.299 725.674L114.994 737.209M135.806 711.771C136.268 710.161 136.671 708.753 136.994 707.625C138.061 702.109 138.24 689.776 130.572 684.067C130.387 683.929 130.157 683.866 129.927 683.882C125.344 684.211 117.915 684.675 109.608 685.214M102.932 728.649L114.994 737.209M91.5833 686.402C91.7553 683.987 94.2417 678.797 101.44 679.233C102.158 679.276 102.821 679.38 103.433 679.535M91.5833 686.402C91.1556 689.71 92.3331 696.492 100.464 697.158C108.087 697.782 110.791 689.194 109.608 685.214M109.608 685.214C108.567 682.721 106.743 680.374 103.433 679.535M103.433 679.535C104.03 676.848 103.986 672.161 99.7306 668.861M114.884 701.289L115.365 701.427M126.487 706.175L126.968 706.312M116.18 713.104L116.66 713.241M126.496 695.255L126.976 695.392" stroke="#E2EEEE" stroke-width="4" stroke-linecap="round" stroke-linejoin="round"/>
<path d="M120.436 1104.4L80.9679 1109.88C80.1236 1110 79.4463 1110.64 79.2808 1111.47L77.1306 1122.34M120.436 1104.4L118.058 1116.42M120.436 1104.4C114.759 1101.03 106.362 1096.03 97.6382 1090.83M51.1759 1137.59L114.977 1128.54C115.398 1128.48 115.735 1128.16 115.818 1127.74L118.058 1116.42M51.1759 1137.59C47.579 1136.88 40.517 1132.73 41.0441 1121.82C42.7716 1113.09 45.1889 1100.88 46.7105 1093.19M51.1759 1137.59L53.6026 1125.33M77.1306 1122.34L118.058 1116.42M77.1306 1122.34C76.8445 1126.36 70.8026 1128.32 68.2428 1123.22M55.9323 1113.55L68.7276 1111.5C69.4152 1111.39 70.0025 1112 69.8673 1112.68C69.5528 1114.27 69.1592 1116.26 68.6294 1118.93C68.5414 1119.38 67.8447 1122.24 68.2428 1123.22M55.9323 1113.55C53.1737 1111.18 47.4673 1103.79 46.7105 1093.19M55.9323 1113.55L53.6026 1125.33M46.7105 1093.19C47.0356 1091.55 47.3198 1090.11 47.5477 1088.96C49.1187 1083.56 54.5938 1072.51 64.0225 1070.94C64.2504 1070.9 64.4839 1070.95 64.6814 1071.07C68.6076 1073.45 75.0047 1077.26 82.1473 1081.53M68.2428 1123.22L53.6026 1125.33M97.6382 1090.83C98.5886 1088.6 98.7478 1082.85 92.146 1079.95C91.4871 1079.66 90.8499 1079.45 90.2343 1079.3M97.6382 1090.83C96.5075 1093.96 92.3619 1099.46 84.8247 1096.34C77.7586 1093.41 79.2768 1084.53 82.1473 1081.53M82.1473 1081.53C84.2125 1079.79 86.9071 1078.54 90.2343 1079.3M90.2343 1079.3C90.9311 1076.64 93.1116 1072.49 98.4047 1071.5M70.1101 1093.42L69.6196 1093.33M57.5567 1092.47L57.0662 1092.37M63.5602 1103.34L63.0697 1103.24M62.5381 1082.75L62.0476 1082.65" stroke="#E2EEEE" stroke-width="4" stroke-linecap="round" stroke-linejoin="round"/>
<path d="M239.326 949.431L277.268 961.601C278.079 961.862 278.637 962.608 278.656 963.46L278.909 974.533M239.326 949.431L239.605 961.678M239.326 949.431C245.498 947.081 254.628 943.598 264.116 939.969M301.86 994.014L240.56 974.143C240.156 974.012 239.879 973.64 239.869 973.215L239.605 961.678M301.86 994.014C305.526 993.93 313.196 991.054 314.549 980.22C314.345 971.324 314.061 958.876 313.882 951.04M301.86 994.014L301.575 981.517M278.909 974.533L239.605 961.678M278.909 974.533C278.501 978.543 284.117 981.51 287.513 976.931M301.301 969.52L289.048 965.298C288.39 965.071 287.707 965.57 287.723 966.266C287.76 967.885 287.806 969.912 287.868 972.64C287.879 973.093 288.075 976.027 287.513 976.931M301.301 969.52C304.426 967.657 311.317 961.352 313.882 951.04M301.301 969.52L301.575 981.517M313.882 951.04C313.844 949.366 313.81 947.902 313.783 946.729C313.162 941.145 309.665 929.317 300.647 926.146C300.429 926.069 300.191 926.077 299.976 926.161C295.698 927.838 288.742 930.49 280.972 933.475M287.513 976.931L301.575 981.517M264.116 939.969C263.562 937.612 264.393 931.918 271.394 930.193C272.093 930.021 272.757 929.923 273.388 929.889M264.116 939.969C264.691 943.255 267.832 949.38 275.793 947.597C283.257 945.926 283.285 936.923 280.972 933.475M280.972 933.475C279.236 931.405 276.797 929.706 273.388 929.889M273.388 929.889C273.159 927.146 271.723 922.684 266.679 920.798M290.789 947.254L291.289 947.243M303.32 948.469L303.82 948.457M295.539 958.149L296.039 958.137M300.081 938.04L300.581 938.028" stroke="#E2EEEE" stroke-width="4" stroke-linecap="round" stroke-linejoin="round"/>
<path d="M208.003 1312.8L237.467 1339.63C238.097 1340.2 238.294 1341.11 237.958 1341.9L233.591 1352.07M208.003 1312.8L203.172 1324.06M208.003 1312.8C214.594 1313.23 224.346 1313.85 234.484 1314.49M246.382 1379.33L198.865 1335.8C198.552 1335.51 198.454 1335.06 198.622 1334.67L203.172 1324.06M246.382 1379.33C249.751 1380.77 257.923 1381.34 263.651 1372.05C267.16 1363.87 272.07 1352.43 275.16 1345.22M246.382 1379.33L251.31 1367.84M233.591 1352.07L203.172 1324.06M233.591 1352.07C231.554 1355.55 235.432 1360.58 240.422 1357.83M256.042 1356.81L246.649 1347.88C246.144 1347.4 245.316 1347.57 245.041 1348.21C244.402 1349.7 243.603 1351.56 242.527 1354.07C242.348 1354.49 241.308 1357.24 240.422 1357.83M256.042 1356.81C259.659 1356.41 268.546 1353.54 275.16 1345.22M256.042 1356.81L251.31 1367.84M275.16 1345.22C275.821 1343.68 276.398 1342.34 276.861 1341.26C278.614 1335.92 280.344 1323.71 273.456 1317.08C273.29 1316.92 273.07 1316.83 272.839 1316.82C268.252 1316.56 260.823 1316.09 252.514 1315.58M240.422 1357.83L251.31 1367.84M234.484 1314.49C234.958 1312.11 238.078 1307.28 245.164 1308.62C245.871 1308.75 246.516 1308.94 247.104 1309.17M234.484 1314.49C233.643 1317.72 233.957 1324.59 241.94 1326.28C249.423 1327.86 253.187 1319.68 252.514 1315.58M252.514 1315.58C251.795 1312.98 250.281 1310.42 247.104 1309.17M247.104 1309.17C248.034 1306.58 248.581 1301.92 244.775 1298.11M255.724 1332.19L256.184 1332.39M266.62 1338.5L267.08 1338.7M255.522 1344.07L255.982 1344.27M268.003 1327.67L268.463 1327.86" stroke="#E2EEEE" stroke-width="4" stroke-linecap="round" stroke-linejoin="round"/>
<path d="M3.39406 1549.07L40.4876 1563.62C41.2812 1563.93 41.7901 1564.71 41.7555 1565.56L41.3055 1576.63M3.39406 1549.07L2.89636 1561.31M3.39406 1549.07C9.70295 1547.11 19.0358 1544.22 28.7347 1541.2M62.9743 1597.53L3.05857 1573.81C2.66334 1573.65 2.41022 1573.26 2.42749 1572.84L2.89636 1561.31M62.9743 1597.53C66.638 1597.68 74.4746 1595.29 76.5121 1584.57C76.8736 1575.68 77.3795 1563.24 77.698 1555.4M62.9743 1597.53L63.4822 1585.04M41.3055 1576.63L2.89636 1561.31M41.3055 1576.63C40.6434 1580.61 46.06 1583.92 49.7399 1579.57M63.9698 1573.05L52.01 1568.06C51.3672 1567.79 50.654 1568.24 50.6257 1568.94C50.5599 1570.56 50.4775 1572.58 50.3666 1575.31C50.3482 1575.76 50.3577 1578.7 49.7399 1579.57M63.9698 1573.05C67.2066 1571.39 74.4838 1565.53 77.698 1555.4M63.9698 1573.05L63.4822 1585.04M77.698 1555.4C77.766 1553.73 77.8255 1552.27 77.8732 1551.1C77.6071 1545.48 74.8682 1533.46 66.0693 1529.72C65.8567 1529.63 65.6182 1529.62 65.3982 1529.69C61.023 1531.1 53.913 1533.3 45.9688 1535.79M49.7399 1579.57L63.4822 1585.04M28.7347 1541.2C28.3314 1538.81 29.5217 1533.18 36.6189 1531.9C37.3272 1531.78 37.9961 1531.72 38.6277 1531.73M28.7347 1541.2C29.1003 1544.51 31.8462 1550.83 39.9046 1549.55C47.4593 1548.36 48.0583 1539.37 45.9688 1535.79M45.9688 1535.79C44.3682 1533.61 42.0416 1531.76 38.6277 1531.73M38.6277 1531.73C38.5728 1528.98 37.4232 1524.43 32.5086 1522.23M54.8922 1550.16L55.3918 1550.18M67.3209 1552.17L67.8205 1552.19M58.9415 1561.34L59.4411 1561.36M64.75 1541.55L65.2496 1541.58" stroke="#E2EEEE" stroke-width="4" stroke-linecap="round" stroke-linejoin="round"/>
<path d="M107.455 1900.92L147.232 1898.57C148.083 1898.52 148.872 1899.02 149.198 1899.81L153.431 1910.04M107.455 1900.92L112.136 1912.24M107.455 1900.92C112.362 1896.5 119.62 1889.96 127.159 1883.15M181.866 1919.92L117.526 1923.52C117.102 1923.54 116.709 1923.3 116.546 1922.9L112.136 1912.24M181.866 1919.92C185.254 1918.52 191.369 1913.07 188.72 1902.48C185.319 1894.26 180.561 1882.75 177.566 1875.51M181.866 1919.92L177.089 1908.37M153.431 1910.04L112.136 1912.24M153.431 1910.04C154.497 1913.93 160.805 1914.67 162.32 1909.17M172.503 1897.28L159.553 1897.77C158.857 1897.79 158.4 1898.51 158.666 1899.15C159.285 1900.65 160.06 1902.52 161.103 1905.04C161.276 1905.46 162.517 1908.13 162.32 1909.17M172.503 1897.28C174.745 1894.42 178.895 1886.05 177.566 1875.51M172.503 1897.28L177.089 1908.37M177.566 1875.51C176.926 1873.96 176.366 1872.61 175.917 1871.52C173.322 1866.54 165.792 1856.77 156.237 1857.07C156.006 1857.08 155.787 1857.17 155.617 1857.33C152.233 1860.43 146.703 1865.42 140.534 1871.01M162.32 1909.17L177.089 1908.37M127.159 1883.15C125.791 1881.15 124.51 1875.54 130.418 1871.4C131.007 1870.99 131.591 1870.66 132.167 1870.4M127.159 1883.15C128.881 1886 134.021 1890.58 140.802 1886.05C147.159 1881.79 143.936 1873.39 140.534 1871.01M140.534 1871.01C138.168 1869.7 135.28 1869 132.167 1870.4M132.167 1870.4C130.963 1867.92 128.013 1864.28 122.629 1864.34M154.663 1880.31L155.125 1880.12M166.788 1876.92L167.25 1876.73M163.026 1888.76L163.488 1888.57M160.003 1868.37L160.465 1868.17" stroke="white" stroke-width="4" stroke-linecap="round" stroke-linejoin="round"/>
<path d="M287.9 465.466L252.789 484.306C252.038 484.709 251.625 485.543 251.76 486.385L253.516 497.321M287.9 465.466L289.843 477.561M287.9 465.466C281.404 464.272 271.794 462.5 261.806 460.65M234.472 520.635L291.161 489.993C291.535 489.791 291.74 489.375 291.672 488.955L289.843 477.561M234.472 520.635C230.852 521.217 222.788 519.777 219.496 509.368C218.085 500.582 216.111 488.288 214.868 480.549M234.472 520.635L232.49 508.294M253.516 497.321L289.843 477.561M253.516 497.321C254.644 501.191 249.658 505.125 245.489 501.237M230.587 496.445L241.873 490.074C242.479 489.732 243.241 490.099 243.351 490.786C243.608 492.386 243.93 494.387 244.363 497.082C244.434 497.529 244.773 500.45 245.489 501.237M230.587 496.445C227.177 495.179 219.258 490.226 214.868 480.549M230.587 496.445L232.49 508.294M214.868 480.549C214.602 478.896 214.37 477.45 214.184 476.291C213.784 470.687 215.081 458.421 223.376 453.67C223.576 453.555 223.812 453.52 224.039 453.564C228.549 454.438 235.87 455.786 244.053 457.315M245.489 501.237L232.49 508.294M261.806 460.65C261.924 458.231 260.076 452.781 252.878 452.353C252.159 452.31 251.489 452.334 250.862 452.415M261.806 460.65C261.836 463.985 259.856 470.577 251.703 470.266C244.06 469.974 242.403 461.125 244.053 457.315M244.053 457.315C245.385 454.965 247.476 452.853 250.862 452.415M250.862 452.415C250.591 449.676 251.195 445.027 255.814 442.26M236.893 472.644L236.399 472.724M224.789 476.108L224.295 476.187M234.194 484.219L233.701 484.298M226.086 465.265L225.593 465.344" stroke="#E2EEEE" stroke-width="4" stroke-linecap="round" stroke-linejoin="round"/>
<path d="M38.5384 250.164L75.3267 265.473C76.1136 265.801 76.6066 266.591 76.5545 267.442L75.8784 278.497M38.5384 250.164L37.7905 262.392M38.5384 250.164C44.8859 248.34 54.2761 245.635 64.0346 242.815M97.1154 299.833L37.6971 274.893C37.3052 274.729 37.0601 274.335 37.086 273.91L37.7905 262.392M97.1154 299.833C100.775 300.057 108.659 297.834 110.915 287.152C111.459 278.27 112.219 265.842 112.697 258.019M97.1154 299.833L97.8785 287.356M75.8784 278.497L37.7905 262.392M75.8784 278.497C75.1351 282.459 80.4828 285.885 84.251 281.608M98.6111 275.379L86.7559 270.144C86.1188 269.863 85.3964 270.303 85.3539 270.998C85.255 272.615 85.1312 274.638 84.9646 277.362C84.9369 277.814 84.8863 280.754 84.251 281.608M98.6111 275.379C101.881 273.784 109.277 268.079 112.697 258.019M98.6111 275.379L97.8785 287.356M112.697 258.019C112.799 256.347 112.889 254.886 112.96 253.714C112.809 248.098 110.317 236.018 101.596 232.103C101.385 232.008 101.147 231.996 100.926 232.062C96.5227 233.373 89.3691 235.433 81.3758 237.756M84.251 281.608L97.8785 287.356M64.0346 242.815C63.6802 240.419 64.9854 234.815 72.1072 233.683C72.818 233.57 73.4878 233.528 74.1192 233.547M64.0346 242.815C64.3324 246.136 66.9486 252.503 75.0314 251.395C82.6089 250.355 83.3915 241.386 81.3758 237.756M81.3758 237.756C79.82 235.548 77.5317 233.651 74.1192 233.547M74.1192 233.547C74.1206 230.795 73.0641 226.228 68.1955 223.926M90.0034 252.31L90.5024 252.341M102.388 254.571L102.888 254.601M93.8234 263.565L94.3225 263.595M100.035 243.907L100.534 243.938" stroke="#E2EEEE" stroke-width="4" stroke-linecap="round" stroke-linejoin="round"/>
<path d="M1646.04 83.6393L1685.4 77.4702C1686.25 77.3382 1687.08 77.7545 1687.48 78.5071L1692.68 88.2865M1646.04 83.6393L1651.79 94.4554M1646.04 83.6393C1650.5 78.7671 1657.09 71.5546 1663.94 64.0507M1721.93 95.3824L1658.24 105.164C1657.82 105.228 1657.41 105.02 1657.21 104.645L1651.79 94.4554M1721.93 95.3824C1725.17 93.661 1730.73 87.6464 1727.08 77.3594C1722.9 69.5025 1717.05 58.5086 1713.37 51.5884M1721.93 95.3824L1716.07 84.3455M1692.68 88.2865L1651.79 94.4554M1692.68 88.2865C1694.12 92.0531 1700.47 92.1806 1701.44 86.5642M1710.43 73.7502L1697.59 75.4814C1696.9 75.5744 1696.51 76.3266 1696.84 76.9415C1697.6 78.3718 1698.55 80.1619 1699.83 82.5713C1700.05 82.9714 1701.54 85.5045 1701.44 86.5642M1710.43 73.7502C1712.39 70.6815 1715.71 61.9531 1713.37 51.5884M1710.43 73.7502L1716.07 84.3455M1713.37 51.5884C1712.59 50.1097 1711.9 48.817 1711.35 47.7807C1708.28 43.0708 1699.85 34.0734 1690.37 35.2915C1690.14 35.321 1689.93 35.435 1689.77 35.6069C1686.7 39.0258 1681.68 44.52 1676.08 50.6773M1701.44 86.5642L1716.07 84.3455M1663.94 64.0507C1662.38 62.1936 1660.57 56.7329 1666.05 52.0469C1666.6 51.5792 1667.14 51.1932 1667.69 50.8797M1663.94 64.0507C1665.93 66.7275 1671.48 70.7891 1677.8 65.6206C1683.71 60.7752 1679.69 52.719 1676.08 50.6773M1676.08 50.6773C1673.6 49.6069 1670.66 49.1852 1667.69 50.8797M1667.69 50.8797C1666.26 48.5324 1662.97 45.1901 1657.62 45.7715M1691.04 58.5785L1691.48 58.3438M1702.78 54.0346L1703.22 53.7998M1700.18 66.1783L1700.62 65.9436M1695.2 46.172L1695.64 45.9373" stroke="white" stroke-width="4" stroke-linecap="round" stroke-linejoin="round"/>
<path d="M1755.51 863.774L1787.92 886.966C1788.61 887.462 1788.91 888.343 1788.67 889.16L1785.52 899.78M1755.51 863.774L1752.03 875.519M1755.51 863.774C1762.11 863.424 1771.87 862.901 1782.01 862.348M1801.42 925.346L1749.13 887.68C1748.79 887.431 1748.64 886.992 1748.76 886.584L1752.03 875.519M1801.42 925.346C1804.93 926.388 1813.11 925.995 1817.72 916.095C1820.24 907.562 1823.78 895.624 1826 888.109M1801.42 925.346L1804.97 913.361M1785.52 899.78L1752.03 875.519M1785.52 899.78C1783.91 903.473 1788.35 908.015 1792.98 904.694M1808.37 901.855L1798 894.088C1797.44 893.671 1796.64 893.937 1796.44 894.604C1795.98 896.157 1795.41 898.101 1794.63 900.718C1794.5 901.152 1793.79 904.005 1792.98 904.694M1808.37 901.855C1811.92 901.037 1820.41 897.142 1826 888.109M1808.37 901.855L1804.97 913.361M1826 888.109C1826.48 886.503 1826.9 885.1 1827.23 883.974C1828.35 878.468 1828.63 866.137 1821.02 860.36C1820.83 860.22 1820.6 860.155 1820.37 860.169C1815.79 860.457 1808.36 860.855 1800.04 861.32M1792.98 904.694L1804.97 913.361M1782.01 862.348C1782.2 859.934 1784.74 854.767 1791.93 855.266C1792.65 855.316 1793.31 855.426 1793.92 855.586M1782.01 862.348C1781.55 865.651 1782.67 872.444 1790.79 873.182C1798.41 873.873 1801.19 865.31 1800.04 861.32M1800.04 861.32C1799.03 858.818 1797.22 856.455 1793.92 855.586M1793.92 855.586C1794.54 852.905 1794.54 848.217 1790.31 844.879M1805.18 877.442L1805.66 877.584M1816.74 882.43L1817.22 882.572M1806.37 889.267L1806.85 889.409M1816.84 871.511L1817.32 871.653" stroke="#E2EEEE" stroke-width="4" stroke-linecap="round" stroke-linejoin="round"/>
<path d="M1447.58 227.493L1478.57 252.551C1479.23 253.087 1479.48 253.984 1479.19 254.786L1475.42 265.202M1447.58 227.493L1443.42 239.014M1447.58 227.493C1454.19 227.532 1463.96 227.584 1474.12 227.628M1489.79 291.659L1439.81 250.982C1439.48 250.714 1439.35 250.266 1439.5 249.867L1443.42 239.014M1489.79 291.659C1493.23 292.906 1501.42 292.995 1506.6 283.383C1509.63 275.014 1513.86 263.304 1516.52 255.933M1489.79 291.659L1494.03 279.904M1475.42 265.202L1443.42 239.014M1475.42 265.202C1473.59 268.794 1477.76 273.589 1482.58 270.547M1498.11 268.618L1488.22 260.254C1487.68 259.805 1486.87 260.023 1486.63 260.678C1486.08 262.201 1485.39 264.108 1484.46 266.674C1484.31 267.101 1483.43 269.907 1482.58 270.547M1498.11 268.618C1501.7 268.01 1510.4 264.621 1516.52 255.933M1498.11 268.618L1494.03 279.904M1516.52 255.933C1517.09 254.358 1517.59 252.981 1517.99 251.877C1519.43 246.446 1520.44 234.153 1513.18 227.939C1513 227.788 1512.78 227.709 1512.55 227.71C1507.95 227.728 1500.51 227.688 1492.18 227.663M1482.58 270.547L1494.03 279.904M1474.12 227.628C1474.45 225.23 1477.29 220.221 1484.44 221.142C1485.15 221.234 1485.81 221.383 1486.41 221.579M1474.12 227.628C1473.47 230.899 1474.18 237.745 1482.25 238.96C1489.81 240.099 1493.09 231.714 1492.18 227.663M1492.18 227.663C1491.31 225.106 1489.65 222.641 1486.41 221.579M1486.41 221.579C1487.18 218.939 1487.46 214.259 1483.44 210.678M1496.36 244.059L1496.83 244.229M1507.6 249.719L1508.07 249.889M1496.85 255.934L1497.32 256.104M1508.35 238.824L1508.82 238.994" stroke="#E2EEEE" stroke-width="4" stroke-linecap="round" stroke-linejoin="round"/>
<path d="M1782.74 408.333L1822.29 403.454C1823.13 403.35 1823.95 403.793 1824.33 404.558L1829.21 414.502M1782.74 408.333L1788.14 419.332M1782.74 408.333C1787.36 403.61 1794.18 396.616 1801.27 389.34M1858.21 422.551L1794.24 430.245C1793.81 430.296 1793.41 430.074 1793.22 429.693L1788.14 419.332M1858.21 422.551C1861.51 420.936 1867.26 415.106 1863.94 404.705C1860.02 396.716 1854.54 385.537 1851.09 378.5M1858.21 422.551L1852.71 411.328M1829.21 414.502L1788.14 419.332M1829.21 414.502C1830.52 418.314 1836.86 418.649 1838.02 413.067M1847.43 400.554L1834.53 401.865C1833.84 401.935 1833.43 402.674 1833.74 403.299C1834.45 404.754 1835.34 406.574 1836.54 409.024C1836.74 409.431 1838.15 412.011 1838.02 413.067M1847.43 400.554C1849.48 397.551 1853.09 388.936 1851.09 378.5M1847.43 400.554L1852.71 411.328M1851.09 378.5C1850.35 376.997 1849.71 375.682 1849.19 374.628C1846.28 369.821 1838.14 360.552 1828.63 361.46C1828.4 361.482 1828.18 361.589 1828.02 361.756C1824.84 365.073 1819.64 370.4 1813.84 376.371M1838.02 413.067L1852.71 411.328M1801.27 389.34C1799.78 387.433 1798.14 381.916 1803.77 377.412C1804.34 376.962 1804.9 376.595 1805.46 376.299M1801.27 389.34C1803.17 392.081 1808.59 396.322 1815.07 391.362C1821.14 386.713 1817.39 378.53 1813.84 376.371M1813.84 376.371C1811.4 375.22 1808.47 374.702 1805.46 376.299M1805.46 376.299C1804.1 373.906 1800.92 370.458 1795.55 370.864M1828.54 384.757L1828.99 384.537M1840.42 380.599L1840.87 380.379M1837.42 392.651L1837.87 392.431M1833.1 372.493L1833.55 372.273" stroke="#E2EEEE" stroke-width="4" stroke-linecap="round" stroke-linejoin="round"/>
<path d="M176.903 50.4973L216.747 50.9236C217.599 50.9328 218.352 51.4811 218.623 52.2896L222.133 62.7943M176.903 50.4973L180.786 62.1156M176.903 50.4973C182.106 46.4296 189.802 40.4068 197.795 34.1386M249.813 74.6309L185.379 73.7436C184.954 73.7378 184.579 73.4639 184.444 73.0607L180.786 62.1156M249.813 74.6309C253.29 73.4686 259.769 68.4566 257.863 57.7063C255.042 49.2666 251.096 37.4573 248.611 30.024M249.813 74.6309L245.85 62.7755M222.133 62.7943L180.786 62.1156M222.133 62.7943C222.927 66.7465 229.169 67.9225 231.062 62.5451M242.047 51.3943L229.094 50.9776C228.398 50.9552 227.892 51.6331 228.113 52.2937C228.627 53.83 229.269 55.7529 230.134 58.341C230.278 58.7708 231.331 61.5159 231.062 62.5451M242.047 51.3943C244.482 48.6913 249.205 40.6329 248.611 30.024M242.047 51.3943L245.85 62.7755M248.611 30.024C248.08 28.4356 247.616 27.047 247.244 25.9338C245.002 20.7822 238.169 10.5133 228.617 10.1466C228.386 10.1377 228.16 10.2155 227.98 10.3595C224.388 13.2238 218.525 17.8115 211.982 22.9576M231.062 62.5451L245.85 62.7755M197.795 34.1386C196.57 32.0502 195.682 26.3644 201.863 22.6494C202.48 22.2786 203.085 21.9888 203.678 21.7703M197.795 34.1386C199.314 37.1077 204.124 42.0324 211.204 37.9791C217.842 34.1791 215.21 25.5692 211.982 22.9576M211.982 22.9576C209.713 21.4917 206.881 20.5893 203.678 21.7703M203.678 21.7703C202.649 19.2176 199.96 15.3777 194.584 15.0657M225.43 33.2244L225.905 33.0659M237.761 30.6848L238.235 30.5263M233.185 42.2307L233.659 42.0722M231.588 21.6772L232.062 21.5187" stroke="white" stroke-width="4" stroke-linecap="round" stroke-linejoin="round"/>
<path d="M1626.27 1120.2L1586.57 1116.79C1585.72 1116.71 1584.92 1117.19 1584.57 1117.97L1580.07 1128.08M1626.27 1120.2L1621.29 1131.39M1626.27 1120.2C1621.48 1115.65 1614.4 1108.91 1607.05 1101.9M1551.38 1137.2L1615.6 1142.52C1616.02 1142.55 1616.42 1142.32 1616.6 1141.93L1621.29 1131.39M1551.38 1137.2C1548.03 1135.71 1542.06 1130.1 1544.99 1119.58C1548.61 1111.45 1553.68 1100.08 1556.87 1092.92M1551.38 1137.2L1556.46 1125.78M1580.07 1128.08L1621.29 1131.39M1580.07 1128.08C1578.9 1131.94 1572.57 1132.51 1571.21 1126.98M1561.34 1114.82L1574.28 1115.65C1574.97 1115.7 1575.41 1116.42 1575.13 1117.06C1574.47 1118.54 1573.64 1120.39 1572.53 1122.88C1572.35 1123.3 1571.04 1125.93 1571.21 1126.98M1561.34 1114.82C1559.18 1111.9 1555.25 1103.42 1556.87 1092.92M1561.34 1114.82L1556.46 1125.78M1556.87 1092.92C1557.55 1091.39 1558.14 1090.05 1558.62 1088.98C1561.35 1084.07 1569.14 1074.5 1578.68 1075.06C1578.91 1075.07 1579.13 1075.17 1579.29 1075.33C1582.59 1078.53 1587.99 1083.66 1594 1089.41M1571.21 1126.98L1556.46 1125.78M1607.05 1101.9C1608.47 1099.94 1609.9 1094.37 1604.11 1090.08C1603.53 1089.65 1602.95 1089.3 1602.38 1089.03M1607.05 1101.9C1605.25 1104.71 1599.99 1109.15 1593.33 1104.44C1587.09 1100.01 1590.54 1091.7 1594 1089.41M1594 1089.41C1596.4 1088.17 1599.31 1087.54 1602.38 1089.03M1602.38 1089.03C1603.65 1086.58 1606.7 1083.02 1612.08 1083.23M1579.63 1098.33L1579.17 1098.13M1567.6 1094.62L1567.14 1094.42M1571.05 1106.55L1570.59 1106.35M1574.61 1086.25L1574.16 1086.05" stroke="#E2EEEE" stroke-width="4" stroke-linecap="round" stroke-linejoin="round"/>
<path d="M1777.56 1332.1L1813.93 1348.38C1814.71 1348.73 1815.18 1349.53 1815.1 1350.38L1814.13 1361.42M1777.56 1332.1L1776.49 1344.3M1777.56 1332.1C1783.96 1330.44 1793.42 1327.99 1803.25 1325.43M1834.79 1383.31L1776.06 1356.79C1775.67 1356.62 1775.44 1356.22 1775.48 1355.8L1776.49 1344.3M1834.79 1383.31C1838.45 1383.63 1846.39 1381.62 1848.93 1371C1849.71 1362.14 1850.8 1349.74 1851.49 1341.93M1834.79 1383.31L1835.89 1370.86M1814.13 1361.42L1776.49 1344.3M1814.13 1361.42C1813.28 1365.36 1818.54 1368.93 1822.42 1364.75M1836.94 1358.91L1825.23 1353.36C1824.6 1353.06 1823.87 1353.48 1823.81 1354.17C1823.66 1355.79 1823.49 1357.81 1823.25 1360.52C1823.21 1360.98 1823.08 1363.91 1822.42 1364.75M1836.94 1358.91C1840.25 1357.4 1847.8 1351.89 1851.49 1341.93M1836.94 1358.91L1835.89 1370.86M1851.49 1341.93C1851.63 1340.26 1851.76 1338.8 1851.86 1337.63C1851.86 1332.01 1849.69 1319.87 1841.08 1315.73C1840.87 1315.63 1840.64 1315.61 1840.41 1315.67C1835.98 1316.86 1828.77 1318.73 1820.72 1320.84M1822.42 1364.75L1835.89 1370.86M1803.25 1325.43C1802.96 1323.03 1804.41 1317.46 1811.56 1316.52C1812.27 1316.42 1812.94 1316.4 1813.58 1316.44M1803.25 1325.43C1803.46 1328.76 1805.9 1335.19 1814.01 1334.3C1821.61 1333.46 1822.63 1324.52 1820.72 1320.84M1820.72 1320.84C1819.22 1318.59 1816.98 1316.63 1813.58 1316.44M1813.58 1316.44C1813.65 1313.68 1812.72 1309.09 1807.91 1306.66M1828.95 1335.62L1829.45 1335.66M1841.27 1338.21L1841.77 1338.25M1832.47 1346.97L1832.97 1347.01M1839.21 1327.48L1839.7 1327.53" stroke="#E2EEEE" stroke-width="4" stroke-linecap="round" stroke-linejoin="round"/>
<path d="M1599.4 1556.36L1638.79 1562.34C1639.63 1562.46 1640.3 1563.11 1640.46 1563.95L1642.47 1574.84M1599.4 1556.36L1601.62 1568.41M1599.4 1556.36C1605.11 1553.06 1613.57 1548.17 1622.36 1543.07M1668.23 1590.42L1604.55 1580.56C1604.13 1580.5 1603.8 1580.17 1603.72 1579.76L1601.62 1568.41M1668.23 1590.42C1671.84 1589.75 1678.95 1585.69 1678.56 1574.78C1676.94 1566.03 1674.68 1553.79 1673.26 1546.08M1668.23 1590.42L1665.96 1578.13M1642.47 1574.84L1601.62 1568.41M1642.47 1574.84C1642.71 1578.87 1648.72 1580.9 1651.35 1575.84M1663.78 1566.33L1651.01 1564.11C1650.32 1563.99 1649.73 1564.59 1649.86 1565.28C1650.15 1566.87 1650.52 1568.86 1651.01 1571.55C1651.1 1571.99 1651.76 1574.86 1651.35 1575.84M1663.78 1566.33C1666.57 1563.99 1672.37 1556.67 1673.26 1546.08M1663.78 1566.33L1665.96 1578.13M1673.26 1546.08C1672.95 1544.43 1672.69 1542.99 1672.47 1541.84C1670.97 1536.43 1665.64 1525.3 1656.23 1523.61C1656 1523.57 1655.77 1523.62 1655.57 1523.73C1651.61 1526.07 1645.17 1529.79 1637.97 1533.98M1651.35 1575.84L1665.96 1578.13M1622.36 1543.07C1621.44 1540.83 1621.35 1535.08 1627.99 1532.26C1628.65 1531.98 1629.29 1531.78 1629.91 1531.65M1622.36 1543.07C1623.45 1546.23 1627.53 1551.77 1635.11 1548.74C1642.21 1545.91 1640.8 1537.01 1637.97 1533.98M1637.97 1533.98C1635.93 1532.21 1633.25 1530.92 1629.91 1531.65M1629.91 1531.65C1629.25 1528.97 1627.12 1524.8 1621.84 1523.74M1649.86 1546.02L1650.35 1545.93M1662.42 1545.22L1662.91 1545.13M1656.28 1556.02L1656.77 1555.93M1657.56 1535.44L1658.05 1535.35" stroke="#E2EEEE" stroke-width="4" stroke-linecap="round" stroke-linejoin="round"/>
<path d="M1705.35 1894.55L1730.41 1925.53C1730.94 1926.19 1731 1927.12 1730.55 1927.85L1724.69 1937.25M1705.35 1894.55L1698.87 1904.94M1705.35 1894.55C1711.8 1895.97 1721.35 1898.06 1731.27 1900.23M1733.2 1966.12L1692.83 1915.89C1692.57 1915.56 1692.54 1915.1 1692.77 1914.73L1698.87 1904.94M1733.2 1966.12C1736.31 1968.06 1744.3 1969.86 1751.37 1961.54C1756.08 1953.99 1762.67 1943.43 1766.82 1936.78M1733.2 1966.12L1739.81 1955.51M1724.69 1937.25L1698.87 1904.94M1724.69 1937.25C1722.15 1940.37 1725.22 1945.94 1730.57 1943.97M1746.16 1945.33L1738.23 1935.08C1737.81 1934.53 1736.96 1934.57 1736.59 1935.17C1735.74 1936.54 1734.66 1938.26 1733.22 1940.58C1732.98 1940.96 1731.53 1943.52 1730.57 1943.97M1746.16 1945.33C1749.8 1945.49 1759.02 1943.99 1766.82 1936.78M1746.16 1945.33L1739.81 1955.51M1766.82 1936.78C1767.7 1935.36 1768.48 1934.11 1769.1 1933.12C1771.64 1928.11 1775.2 1916.3 1769.4 1908.7C1769.26 1908.52 1769.06 1908.39 1768.83 1908.35C1764.34 1907.4 1757.06 1905.81 1748.93 1904.04M1730.57 1943.97L1739.81 1955.51M1731.27 1900.23C1732.1 1897.95 1735.92 1893.65 1742.72 1896.05C1743.4 1896.28 1744.01 1896.57 1744.55 1896.88M1731.27 1900.23C1729.95 1903.29 1729.22 1910.14 1736.85 1913.01C1744.01 1915.71 1748.97 1908.19 1748.93 1904.04M1748.93 1904.04C1748.61 1901.36 1747.5 1898.6 1744.55 1896.88M1744.55 1896.88C1745.87 1894.47 1747.11 1889.95 1743.93 1885.6M1749.58 1920.95L1750.01 1921.21M1759.4 1928.84L1759.82 1929.1M1747.58 1932.66L1748.01 1932.93M1762.41 1918.34L1762.83 1918.6" stroke="white" stroke-width="4" stroke-linecap="round" stroke-linejoin="round"/>
<path d="M1668.81 615.148L1631.15 628.182C1630.35 628.461 1629.81 629.22 1629.81 630.072V641.148M1668.81 615.148V627.398M1668.81 615.148C1662.58 612.939 1653.38 609.666 1643.81 606.255M1607.31 661.148L1668.14 639.882C1668.54 639.742 1668.81 639.363 1668.81 638.938V627.398M1607.31 661.148C1603.64 661.148 1595.91 658.448 1594.31 647.648C1594.31 638.749 1594.31 626.298 1594.31 618.46M1607.31 661.148V648.648M1629.81 641.148L1668.81 627.398M1629.81 641.148C1630.31 645.148 1624.76 648.242 1621.26 643.742M1607.31 636.648L1619.46 632.147C1620.11 631.905 1620.81 632.388 1620.81 633.084C1620.81 634.704 1620.81 636.731 1620.81 639.46C1620.81 639.913 1620.68 642.851 1621.26 643.742M1607.31 636.648C1604.14 634.856 1597.11 628.71 1594.31 618.46M1607.31 636.648V648.648M1594.31 618.46C1594.31 616.786 1594.31 615.322 1594.31 614.148C1594.8 608.551 1598.03 596.646 1606.97 593.27C1607.19 593.189 1607.42 593.191 1607.64 593.27C1611.96 594.848 1618.97 597.341 1626.81 600.148M1621.26 643.742L1607.31 648.648M1643.81 606.255C1644.31 603.886 1643.35 598.212 1636.31 596.648C1635.6 596.492 1634.94 596.409 1634.31 596.389M1643.81 606.255C1643.31 609.553 1640.31 615.748 1632.31 614.148C1624.81 612.648 1624.57 603.648 1626.81 600.148M1626.81 600.148C1628.49 598.038 1630.89 596.285 1634.31 596.389M1634.31 596.389C1634.47 593.642 1635.81 589.148 1640.81 587.148M1617.31 614.148H1616.81M1604.81 615.648H1604.31M1612.81 625.148H1612.31M1607.81 605.148H1607.31" stroke="#E2EEEE" stroke-width="4" stroke-linecap="round" stroke-linejoin="round"/>
</svg>
