<svg width="632" height="90" viewBox="0 0 632 90" fill="none" xmlns="http://www.w3.org/2000/svg">
<path d="M53.7922 89.7184C53.2362 89.7184 52.6802 89.5794 52.1242 89.3014C51.5682 89.1161 51.1512 88.7918 50.8732 88.3284L19.5982 17.5774H19.1812L19.4592 72.7604C19.5519 74.5211 19.6909 76.2354 19.8762 77.9034C20.1542 79.4788 20.8956 80.8224 22.1002 81.9344C23.3049 82.9538 25.3436 83.4634 28.2162 83.4634C29.2356 83.4634 30.0696 83.5561 30.7182 83.7414C31.3669 83.9268 31.7376 84.8071 31.8302 86.3824C31.8302 87.1238 31.5986 87.8188 31.1352 88.4674C30.7646 89.1161 30.1622 89.4404 29.3282 89.4404C27.3822 89.3478 25.8069 89.2551 24.6022 89.1624C23.3976 89.1624 22.2392 89.1161 21.1272 89.0234C20.0152 89.0234 18.5326 89.0234 16.6792 89.0234C13.8992 89.0234 11.6289 89.0234 9.86823 89.0234C8.20023 89.1161 5.88357 89.2551 2.91823 89.4404C1.99157 89.4404 1.3429 89.1161 0.972232 88.4674C0.601566 87.8188 0.416232 87.1238 0.416232 86.3824C0.508899 84.8071 0.879565 83.9268 1.52823 83.7414C2.1769 83.5561 2.96457 83.4634 3.89123 83.4634C6.85657 83.4634 8.89523 82.9538 10.0072 81.9344C11.2119 80.8224 11.9532 79.4788 12.2312 77.9034C12.5092 76.2354 12.6482 74.5211 12.6482 72.7604L12.9262 17.5774C12.9262 14.6121 12.6019 12.4344 11.9532 11.0444C11.3046 9.56177 10.2852 8.54244 8.89523 7.98644C7.50523 7.33777 5.74457 6.8281 3.61323 6.45743C2.3159 6.17944 1.38923 5.94777 0.833232 5.76243C0.369899 5.5771 0.138232 4.7431 0.138232 3.26043C0.138232 1.6851 0.694232 0.851102 1.80623 0.758431C2.91823 0.5731 4.21557 0.480434 5.69823 0.480434C10.2389 0.480434 14.2236 0.851102 17.6522 1.59244C21.1736 2.33377 24.2316 3.7701 26.8262 5.90143C29.4209 7.9401 31.5522 11.0444 33.2202 15.2144L57.1282 68.8684H57.5452L84.9282 1.31443H92.8512C95.6312 1.31443 98.3186 1.2681 100.913 1.17543C103.601 1.08277 106.427 0.990103 109.392 0.897437C110.319 0.897437 110.968 1.22177 111.338 1.87043C111.709 2.5191 111.894 3.2141 111.894 3.95543C111.802 5.53077 111.431 6.4111 110.782 6.59643C110.134 6.78177 109.346 6.87443 108.419 6.87443C105.547 6.87443 103.462 7.43043 102.164 8.54243C100.96 9.56177 100.218 10.9054 99.9402 12.5734C99.6622 14.1488 99.4769 15.8168 99.3842 17.5774V72.7604C99.4769 74.5211 99.6622 76.2354 99.9402 77.9034C100.218 79.4788 100.96 80.8224 102.164 81.9344C103.462 82.9538 105.547 83.4634 108.419 83.4634C109.346 83.4634 110.134 83.5561 110.782 83.7414C111.431 83.9268 111.802 84.8071 111.894 86.3824C111.894 87.1238 111.709 87.8188 111.338 88.4674C110.968 89.1161 110.319 89.4404 109.392 89.4404C106.427 89.2551 103.601 89.1161 100.913 89.0234C98.2259 89.0234 95.4922 89.0234 92.7122 89.0234C87.3376 89.0234 81.6386 89.1624 75.6152 89.4404C74.6886 89.4404 74.0399 89.1161 73.6692 88.4674C73.2986 87.8188 73.1132 87.1238 73.1132 86.3824C73.2059 84.8071 73.5766 83.9268 74.2252 83.7414C74.8739 83.5561 75.6616 83.4634 76.5882 83.4634C79.5536 83.4634 81.6386 82.9538 82.8432 81.9344C84.0479 80.8224 84.7892 79.4788 85.0672 77.9034C85.4379 76.2354 85.6232 74.5211 85.6232 72.7604V17.5774H85.2062L56.5722 88.3284C56.3869 88.7918 56.0162 89.1161 55.4602 89.3014C54.9042 89.5794 54.3482 89.7184 53.7922 89.7184ZM126.166 89.4404C125.332 89.4404 124.729 89.1161 124.359 88.4674C123.988 87.8188 123.803 87.1238 123.803 86.3824C123.895 84.8071 124.266 83.9268 124.915 83.7414C125.563 83.5561 126.351 83.4634 127.278 83.4634C130.243 83.4634 132.328 82.9538 133.533 81.9344C134.737 80.8224 135.479 79.4788 135.757 77.9034C136.127 76.2354 136.313 74.5211 136.313 72.7604V17.5774C136.313 15.8168 136.127 14.1488 135.757 12.5734C135.479 10.9054 134.737 9.56177 133.533 8.54243C132.328 7.43043 130.243 6.87443 127.278 6.87443C126.351 6.87443 125.563 6.78177 124.915 6.59643C124.266 6.4111 123.895 5.53077 123.803 3.95543C123.803 3.2141 123.988 2.5191 124.359 1.87043C124.729 1.22177 125.332 0.897437 126.166 0.897437C129.224 0.990103 132.05 1.08277 134.645 1.17543C137.239 1.2681 139.927 1.31443 142.707 1.31443H186.353C187.372 1.31443 188.206 1.5461 188.855 2.00943C189.596 2.47276 189.967 3.3531 189.967 4.65043L190.384 24.1104C190.384 25.0371 189.92 25.7321 188.994 26.1954C188.16 26.6588 187.372 26.8904 186.631 26.8904C185.611 26.8904 184.685 26.7051 183.851 26.3344C183.017 25.8711 182.507 25.2224 182.322 24.3884C181.673 20.2184 180.885 16.8824 179.959 14.3804C179.125 11.7858 177.827 9.93244 176.067 8.82043C174.399 7.61577 171.943 6.9671 168.7 6.87443H150.074V42.1804H175.233C175.974 42.2731 176.484 42.6438 176.762 43.2924C177.132 43.9411 177.318 44.6361 177.318 45.3774C177.318 46.0261 177.132 46.6748 176.762 47.3234C176.484 47.8794 175.974 48.1574 175.233 48.1574H150.074V74.4284C150.166 75.6331 150.352 76.9768 150.63 78.4594C150.908 79.8494 151.695 81.0541 152.993 82.0734C154.383 83.0928 156.653 83.5561 159.804 83.4634H172.592C175.835 83.3708 178.291 82.8611 179.959 81.9344C181.719 80.9151 183.109 79.2471 184.129 76.9304C185.148 74.6138 186.26 71.4168 187.465 67.3394C187.835 66.4128 188.438 65.8104 189.272 65.5324C190.198 65.2544 191.171 65.2081 192.191 65.3934C192.932 65.4861 193.673 65.8104 194.415 66.3664C195.249 66.9224 195.619 67.6638 195.527 68.5904L192.747 86.1044C192.469 87.4018 192.005 88.2358 191.357 88.6064C190.801 88.8844 189.92 89.0234 188.716 89.0234H142.846C140.066 89.0234 137.332 89.0234 134.645 89.0234C132.05 89.1161 129.224 89.2551 126.166 89.4404ZM208.697 89.4404C207.863 89.4404 207.214 89.1161 206.751 88.4674C206.38 87.8188 206.195 87.1238 206.195 86.3824C206.288 84.8071 206.658 83.9268 207.307 83.7414C208.048 83.5561 208.882 83.4634 209.809 83.4634C212.774 83.4634 214.859 82.9538 216.064 81.9344C217.269 80.8224 218.01 79.4788 218.288 77.9034C218.659 76.2354 218.844 74.5211 218.844 72.7604V17.5774C218.844 15.8168 218.659 14.1488 218.288 12.5734C218.01 10.9054 217.269 9.56177 216.064 8.54243C214.859 7.43043 212.774 6.87443 209.809 6.87443C208.882 6.87443 208.048 6.78177 207.307 6.59643C206.658 6.4111 206.288 5.53077 206.195 3.95543C206.195 3.2141 206.38 2.5191 206.751 1.87043C207.214 1.22177 207.863 0.897437 208.697 0.897437C211.662 0.990103 214.489 1.08277 217.176 1.17543C219.863 1.2681 222.597 1.31443 225.377 1.31443H246.227C247.988 1.31443 250.258 1.45343 253.038 1.73143C255.911 2.00944 258.922 2.56543 262.073 3.39943C265.316 4.23343 268.374 5.5771 271.247 7.43044C274.12 9.28377 276.436 11.7394 278.197 14.7974C280.05 17.8554 280.977 21.7011 280.977 26.3344C280.977 30.6898 279.958 34.6281 277.919 38.1494C275.973 41.6708 273.332 44.6824 269.996 47.1844C266.753 49.6864 263.046 51.6324 258.876 53.0224C254.799 54.3198 250.629 54.9684 246.366 54.9684C244.327 54.9684 242.103 54.8294 239.694 54.5514C237.285 54.2734 234.875 53.6711 232.466 52.7444V72.7604C232.559 74.5211 232.744 76.2354 233.022 77.9034C233.3 79.4788 234.041 80.8224 235.246 81.9344C236.543 82.9538 238.628 83.4634 241.501 83.4634C242.52 83.4634 243.354 83.5561 244.003 83.7414C244.652 83.9268 245.022 84.8071 245.115 86.3824C245.115 87.1238 244.883 87.8188 244.42 88.4674C244.049 89.1161 243.447 89.4404 242.613 89.4404C236.682 89.1624 230.891 89.0234 225.238 89.0234C222.458 89.0234 219.724 89.0234 217.037 89.0234C214.442 89.1161 211.662 89.2551 208.697 89.4404ZM242.335 48.7134C244.466 48.7134 246.829 48.3891 249.424 47.7404C252.111 46.9991 254.66 45.8408 257.069 44.2654C259.571 42.5974 261.61 40.3734 263.185 37.5934C264.76 34.7208 265.548 31.1068 265.548 26.7514C265.548 22.0254 264.621 18.3188 262.768 15.6314C260.915 12.8514 258.598 10.8128 255.818 9.51543C253.131 8.2181 250.443 7.3841 247.756 7.01343C245.069 6.64277 242.891 6.45743 241.223 6.45743C238.999 6.45743 237.238 6.6891 235.941 7.15243C234.644 7.61576 233.717 8.6351 233.161 10.2104C232.698 11.6931 232.466 14.0098 232.466 17.1604V47.1844C233.393 47.5551 234.736 47.9258 236.497 48.2964C238.258 48.5744 240.204 48.7134 242.335 48.7134ZM291.635 89.4404C290.801 89.4404 290.199 89.1161 289.828 88.4674C289.458 87.8188 289.272 87.1238 289.272 86.3824C289.365 84.8071 289.736 83.9268 290.384 83.7414C291.033 83.5561 291.821 83.4634 292.747 83.4634C295.713 83.4634 297.798 82.9538 299.002 81.9344C300.207 80.8224 300.948 79.4788 301.226 77.9034C301.597 76.2354 301.782 74.5211 301.782 72.7604V17.5774C301.782 15.8168 301.597 14.1488 301.226 12.5734C300.948 10.9054 300.207 9.56177 299.002 8.54243C297.798 7.43043 295.713 6.87443 292.747 6.87443C291.821 6.87443 291.033 6.78177 290.384 6.59643C289.736 6.4111 289.365 5.53077 289.272 3.95543C289.272 3.2141 289.458 2.5191 289.828 1.87043C290.199 1.22177 290.801 0.897437 291.635 0.897437C294.693 0.990103 297.52 1.08277 300.114 1.17543C302.709 1.2681 305.396 1.31443 308.176 1.31443H351.822C352.842 1.31443 353.676 1.5461 354.324 2.00943C355.066 2.47276 355.436 3.3531 355.436 4.65043L355.853 24.1104C355.853 25.0371 355.39 25.7321 354.463 26.1954C353.629 26.6588 352.842 26.8904 352.1 26.8904C351.081 26.8904 350.154 26.7051 349.32 26.3344C348.486 25.8711 347.977 25.2224 347.791 24.3884C347.143 20.2184 346.355 16.8824 345.428 14.3804C344.594 11.7858 343.297 9.93244 341.536 8.82043C339.868 7.61577 337.413 6.9671 334.169 6.87443H315.543V42.1804H340.702C341.444 42.2731 341.953 42.6438 342.231 43.2924C342.602 43.9411 342.787 44.6361 342.787 45.3774C342.787 46.0261 342.602 46.6748 342.231 47.3234C341.953 47.8794 341.444 48.1574 340.702 48.1574H315.543V74.4284C315.636 75.6331 315.821 76.9768 316.099 78.4594C316.377 79.8494 317.165 81.0541 318.462 82.0734C319.852 83.0928 322.123 83.5561 325.273 83.4634H338.061C341.305 83.3708 343.76 82.8611 345.428 81.9344C347.189 80.9151 348.579 79.2471 349.598 76.9304C350.618 74.6138 351.73 71.4168 352.934 67.3394C353.305 66.4128 353.907 65.8104 354.741 65.5324C355.668 65.2544 356.641 65.2081 357.66 65.3934C358.402 65.4861 359.143 65.8104 359.884 66.3664C360.718 66.9224 361.089 67.6638 360.996 68.5904L358.216 86.1044C357.938 87.4018 357.475 88.2358 356.826 88.6064C356.27 88.8844 355.39 89.0234 354.185 89.0234H308.315C305.535 89.0234 302.802 89.0234 300.114 89.0234C297.52 89.1161 294.693 89.2551 291.635 89.4404ZM374.306 89.4404C373.379 89.4404 372.73 89.1161 372.36 88.4674C371.989 87.8188 371.804 87.1238 371.804 86.3824C371.896 84.8071 372.267 83.9268 372.916 83.7414C373.564 83.5561 374.352 83.4634 375.279 83.4634C378.244 83.4634 380.329 82.9538 381.534 81.9344C382.738 80.8224 383.48 79.4788 383.758 77.9034C384.128 76.2354 384.314 74.5211 384.314 72.7604V17.5774C384.314 15.8168 384.128 14.1488 383.758 12.5734C383.48 10.9054 382.738 9.56177 381.534 8.54243C380.329 7.43043 378.244 6.87443 375.279 6.87443C374.352 6.87443 373.564 6.78177 372.916 6.59643C372.267 6.4111 371.896 5.53077 371.804 3.95543C371.804 3.2141 371.989 2.5191 372.36 1.87043C372.73 1.22177 373.379 0.897437 374.306 0.897437C377.271 0.990103 380.051 1.08277 382.646 1.17543C385.24 1.2681 387.928 1.31443 390.708 1.31443C396.36 1.31443 402.152 1.17543 408.083 0.897437C409.009 0.897437 409.658 1.22177 410.029 1.87043C410.399 2.5191 410.585 3.2141 410.585 3.95543C410.492 5.53077 410.121 6.4111 409.473 6.59643C408.917 6.78177 408.129 6.87443 407.11 6.87443C404.237 6.87443 402.152 7.43043 400.855 8.54243C399.65 9.56177 398.909 10.9054 398.631 12.5734C398.353 14.1488 398.167 15.8168 398.075 17.5774V42.1804H441.721V17.5774C441.721 15.8168 441.535 14.1488 441.165 12.5734C440.887 10.9054 440.145 9.56177 438.941 8.54243C437.736 7.43043 435.651 6.87443 432.686 6.87443C431.759 6.87443 430.925 6.78177 430.184 6.59643C429.535 6.4111 429.164 5.53077 429.072 3.95543C429.072 3.2141 429.257 2.5191 429.628 1.87043C430.091 1.22177 430.74 0.897437 431.574 0.897437C437.597 1.17543 443.389 1.31443 448.949 1.31443C451.729 1.31443 454.416 1.2681 457.011 1.17543C459.698 1.08277 462.524 0.990103 465.49 0.897437C466.324 0.897437 466.926 1.22177 467.297 1.87043C467.76 2.5191 467.992 3.2141 467.992 3.95543C467.899 5.53077 467.528 6.4111 466.88 6.59643C466.231 6.78177 465.443 6.87443 464.517 6.87443C461.644 6.87443 459.559 7.43043 458.262 8.54243C456.964 9.56177 456.177 10.9054 455.899 12.5734C455.621 14.1488 455.435 15.8168 455.343 17.5774V72.7604C455.435 74.5211 455.621 76.2354 455.899 77.9034C456.177 79.4788 456.964 80.8224 458.262 81.9344C459.559 82.9538 461.644 83.4634 464.517 83.4634C465.443 83.4634 466.231 83.5561 466.88 83.7414C467.528 83.9268 467.899 84.8071 467.992 86.3824C467.992 87.1238 467.76 87.8188 467.297 88.4674C466.926 89.1161 466.324 89.4404 465.49 89.4404C462.524 89.2551 459.698 89.1161 457.011 89.0234C454.323 89.0234 451.59 89.0234 448.81 89.0234C443.342 89.0234 437.597 89.1624 431.574 89.4404C430.74 89.4404 430.091 89.1161 429.628 88.4674C429.257 87.8188 429.072 87.1238 429.072 86.3824C429.164 84.8071 429.535 83.9268 430.184 83.7414C430.925 83.5561 431.759 83.4634 432.686 83.4634C435.651 83.4634 437.736 82.9538 438.941 81.9344C440.145 80.8224 440.887 79.4788 441.165 77.9034C441.535 76.2354 441.721 74.5211 441.721 72.7604V48.1574H398.075V72.7604C398.167 74.5211 398.353 76.2354 398.631 77.9034C398.909 79.4788 399.65 80.8224 400.855 81.9344C402.152 82.9538 404.237 83.4634 407.11 83.4634C408.129 83.4634 408.917 83.5561 409.473 83.7414C410.121 83.9268 410.492 84.8071 410.585 86.3824C410.585 87.1238 410.399 87.8188 410.029 88.4674C409.658 89.1161 409.009 89.4404 408.083 89.4404C402.152 89.1624 396.407 89.0234 390.847 89.0234C388.067 89.0234 385.333 89.0234 382.646 89.0234C380.051 89.1161 377.271 89.2551 374.306 89.4404ZM483.329 89.4404C482.495 89.4404 481.893 89.1161 481.522 88.4674C481.152 87.8188 480.966 87.1238 480.966 86.3824C481.059 84.8071 481.43 83.9268 482.078 83.7414C482.727 83.5561 483.515 83.4634 484.441 83.4634C487.407 83.4634 489.492 82.9538 490.696 81.9344C491.901 80.8224 492.642 79.4788 492.92 77.9034C493.291 76.2354 493.476 74.5211 493.476 72.7604V17.5774C493.476 15.8168 493.291 14.1488 492.92 12.5734C492.642 10.9054 491.901 9.56177 490.696 8.54243C489.492 7.43043 487.407 6.87443 484.441 6.87443C483.515 6.87443 482.727 6.78177 482.078 6.59643C481.43 6.4111 481.059 5.53077 480.966 3.95543C480.966 3.2141 481.152 2.5191 481.522 1.87043C481.893 1.22177 482.495 0.897437 483.329 0.897437C486.295 0.990103 489.075 1.08277 491.669 1.17543C494.357 1.2681 497.09 1.31443 499.87 1.31443H542.821C543.841 1.31443 544.675 1.5461 545.323 2.00943C546.065 2.47276 546.435 3.3531 546.435 4.65043L546.852 24.2494C546.852 25.1761 546.482 25.8711 545.74 26.3344C544.999 26.7978 544.258 27.0294 543.516 27.0294C542.497 27.0294 541.478 26.8441 540.458 26.4734C539.532 26.0101 538.976 25.3614 538.79 24.5274C538.142 20.3574 537.354 17.0214 536.427 14.5194C535.593 11.9248 534.296 10.0251 532.535 8.82043C530.867 7.61577 528.412 6.9671 525.168 6.87443H507.237V72.7604C507.33 74.5211 507.515 76.2354 507.793 77.9034C508.071 79.4788 508.813 80.8224 510.017 81.9344C511.315 82.9538 513.4 83.4634 516.272 83.4634C517.199 83.4634 517.987 83.5561 518.635 83.7414C519.284 83.9268 519.655 84.8071 519.747 86.3824C519.747 87.1238 519.562 87.8188 519.191 88.4674C518.821 89.1161 518.172 89.4404 517.245 89.4404C511.315 89.1624 505.569 89.0234 500.009 89.0234C497.229 89.0234 494.496 89.0234 491.808 89.0234C489.121 89.1161 486.295 89.2551 483.329 89.4404ZM540.546 89.4404C539.62 89.4404 538.971 89.1161 538.6 88.4674C538.23 87.8188 538.044 87.1238 538.044 86.3824C538.137 84.8071 538.508 83.9268 539.156 83.7414C539.805 83.5561 540.593 83.4634 541.519 83.4634C544.021 83.4634 545.921 82.9538 547.218 81.9344C548.516 80.9151 549.535 79.5714 550.276 77.9034C551.11 76.2354 551.898 74.5211 552.639 72.7604L576.964 15.2144C577.891 12.9904 578.076 11.3224 577.52 10.2104C576.964 9.00577 576.038 8.17177 574.74 7.70843C573.443 7.15243 572.007 6.73543 570.431 6.45743C569.041 6.17944 568.115 5.94777 567.651 5.76243C567.188 5.48443 566.956 4.65043 566.956 3.26043C566.956 1.6851 567.512 0.851102 568.624 0.758431C569.736 0.5731 571.034 0.480434 572.516 0.480434C576.316 0.480434 579.559 0.851102 582.246 1.59244C584.934 2.33377 587.25 3.7701 589.196 5.90143C591.142 7.9401 592.949 11.0444 594.617 15.2144L617.969 72.7604C618.618 74.3358 619.313 75.9574 620.054 77.6254C620.796 79.2934 621.769 80.6834 622.973 81.7954C624.271 82.8148 625.892 83.3708 627.838 83.4634C628.858 83.4634 629.645 83.5561 630.201 83.7414C630.85 83.9268 631.221 84.8071 631.313 86.3824C631.313 87.1238 631.082 87.8188 630.618 88.4674C630.248 89.1161 629.645 89.4404 628.811 89.4404C625.846 89.2551 623.251 89.1161 621.027 89.0234C618.803 89.0234 616.301 89.0234 613.521 89.0234C608.054 89.0234 602.309 89.1624 596.285 89.4404C595.359 89.4404 594.71 89.1161 594.339 88.4674C593.969 87.8188 593.783 87.1238 593.783 86.3824C593.876 84.8071 594.247 83.9268 594.895 83.7414C595.544 83.5561 596.332 83.4634 597.258 83.4634C601.799 83.4634 604.255 82.6294 604.625 80.9614C605.089 79.2934 604.672 76.5598 603.374 72.7604L598.648 61.2234H564.315C562.925 64.7448 561.906 67.2931 561.257 68.8684C560.701 70.4438 560.331 71.4631 560.145 71.9264C560.053 72.3898 559.96 72.6678 559.867 72.7604C558.848 75.9111 558.292 78.2741 558.199 79.8494C558.199 81.3321 558.941 82.3051 560.423 82.7684C561.999 83.2318 564.593 83.4634 568.207 83.4634C569.227 83.4634 570.014 83.5561 570.57 83.7414C571.219 83.9268 571.59 84.8071 571.682 86.3824C571.682 87.1238 571.451 87.8188 570.987 88.4674C570.617 89.1161 570.014 89.4404 569.18 89.4404C566.215 89.2551 563.62 89.1161 561.396 89.0234C559.265 89.0234 556.809 89.0234 554.029 89.0234C552.176 89.0234 550.601 89.0234 549.303 89.0234C548.099 89.1161 546.848 89.1624 545.55 89.1624C544.253 89.2551 542.585 89.3478 540.546 89.4404ZM566.956 55.2464H596.146L582.107 19.5234H581.69L566.956 55.2464Z" fill="#432C25"/>
</svg>
