<svg width="51" height="51" viewBox="0 0 51 51" fill="none" xmlns="http://www.w3.org/2000/svg">
<g clip-path="url(#clip0_50_338)">
<path d="M14.875 51C17.2222 51 19.125 49.0972 19.125 46.75C19.125 44.4028 17.2222 42.5 14.875 42.5C12.5278 42.5 10.625 44.4028 10.625 46.75C10.625 49.0972 12.5278 51 14.875 51Z" fill="black"/>
<path d="M36.125 51C38.4722 51 40.375 49.0972 40.375 46.75C40.375 44.4028 38.4722 42.5 36.125 42.5C33.7778 42.5 31.875 44.4028 31.875 46.75C31.875 49.0972 33.7778 51 36.125 51Z" fill="black"/>
<path d="M48.841 12.7882C47.3451 11.3579 45.3427 10.5798 43.2735 10.625H12.0147L11.4559 6.24325C11.2529 4.52347 10.4261 2.93793 9.13198 1.7872C7.8379 0.636477 6.16658 0.000556488 4.43487 0L3.1875 0C2.34212 0 1.53137 0.335825 0.933597 0.933597C0.335825 1.53137 0 2.34212 0 3.1875C0 4.03288 0.335825 4.84363 0.933597 5.4414C1.53137 6.03918 2.34212 6.375 3.1875 6.375H4.43487C4.60871 6.37686 4.77571 6.44304 4.90363 6.56076C5.03156 6.67849 5.11135 6.83941 5.12763 7.0125L8.31513 32.0004C8.51617 33.7215 9.34229 35.3088 10.6366 36.4609C11.9309 37.6131 13.6033 38.2497 15.3361 38.25H36.8454C39.404 38.2485 41.8915 37.4074 43.926 35.8558C45.9605 34.3042 47.4296 32.1279 48.1079 29.6608L50.7556 20.0324C51.1086 18.7637 51.1173 17.4238 50.7808 16.1506C50.4443 14.8775 49.7747 13.7169 48.841 12.7882ZM41.9688 27.9714C41.6576 29.0919 40.9885 30.0799 40.0635 30.7847C39.1385 31.4895 38.0083 31.8724 36.8454 31.875H15.3361C15.1624 31.8736 14.9954 31.8075 14.8677 31.6896C14.74 31.5718 14.6608 31.4106 14.6455 31.2375L12.8286 17H43.5923C43.7564 16.9988 43.9186 17.0356 44.0661 17.1075C44.2136 17.1795 44.3424 17.2847 44.4425 17.4148C44.5425 17.5449 44.6111 17.6964 44.6427 17.8575C44.6744 18.0185 44.6683 18.1847 44.625 18.343L41.9688 27.9714Z" fill="black"/>
</g>
<defs>
<clipPath id="clip0_50_338">
<rect width="51" height="51" fill="white"/>
</clipPath>
</defs>
</svg>
